<svg width="57" height="49" xmlns="http://www.w3.org/2000/svg" xmlns:xlink="http://www.w3.org/1999/xlink" overflow="hidden"><defs><clipPath id="clip0"><rect x="941" y="425" width="57" height="49"/></clipPath></defs><g clip-path="url(#clip0)" transform="translate(-941 -425)"><path d="M114.66 5.5125 75.3375 5.5125 75.3375 48.3875 114.66 48.3875C126.788 48.3875 130.463 44.2225 130.463 36.1375L130.463 18.13C130.585 9.6775 126.788 5.5125 114.66 5.5125ZM122.5 36.1375C122.5 40.67 120.785 42.14 114.783 42.14L83.4225 42.14 83.4225 11.8825 114.66 11.8825C120.663 11.8825 122.378 13.23 122.378 18.2525L122.5 36.1375 122.5 36.1375Z" fill="#FFFFFF" transform="matrix(1.00187 0 0 1 941 425)"/><path d="M138.425 5.5125 146.51 5.5125 146.51 48.3875 138.425 48.3875Z" fill="#FFFFFF" transform="matrix(1.00187 0 0 1 941 425)"/><path d="M179.34 5.5125 150.798 48.3875 159.863 48.3875 164.395 41.405 200.043 41.405 204.575 48.3875 213.762 48.3875 185.343 5.5125 179.34 5.5125ZM169.173 34.055 182.402 13.8425 195.387 34.055 169.173 34.055Z" fill="#FFFFFF" transform="matrix(1.00187 0 0 1 941 425)"/><path d="M250.635 40.5475 225.155 5.5125 217.56 5.5125 217.56 48.3875 225.155 48.3875 225.155 18.375 246.96 48.3875 253.698 48.3875 275.503 18.375 275.503 48.3875 282.975 48.3875 282.975 5.5125 275.993 5.5125Z" fill="#FFFFFF" transform="matrix(1.00187 0 0 1 941 425)"/><path d="M332.465 5.5125 304.168 5.5125C294.368 5.5125 290.693 9.6775 290.693 15.925L290.693 38.0975C290.693 44.2225 294.368 48.51 304.168 48.51L332.465 48.51C342.265 48.51 345.94 44.345 345.94 38.0975L345.94 15.925C345.94 9.6775 342.142 5.5125 332.465 5.5125ZM337.855 38.0975C337.855 40.67 336.14 42.0175 332.465 42.0175L304.168 42.0175C300.493 42.0175 298.777 40.67 298.777 38.0975L298.777 15.8025C298.777 13.23 300.493 11.8825 304.168 11.8825L332.465 11.8825C336.14 11.8825 337.855 13.23 337.855 15.8025L337.855 38.0975Z" fill="#FFFFFF" transform="matrix(1.00187 0 0 1 941 425)"/><path d="M403.27 37.3625 360.517 5.5125 353.535 5.5125 353.535 48.3875 360.64 48.3875 360.64 15.0675 406.333 48.3875 410.375 48.3875 410.375 5.5125 403.27 5.5125Z" fill="#FFFFFF" transform="matrix(1.00187 0 0 1 941 425)"/><path d="M457.66 5.5125 418.337 5.5125 418.337 48.3875 457.66 48.3875C469.788 48.3875 473.463 44.2225 473.463 36.1375L473.463 18.13C473.463 9.6775 469.788 5.5125 457.66 5.5125ZM465.378 36.1375C465.378 40.67 463.663 42.14 457.66 42.14L426.423 42.14 426.423 11.8825 457.66 11.8825C463.663 11.8825 465.378 13.23 465.378 18.2525L465.378 36.1375Z" fill="#FFFFFF" transform="matrix(1.00187 0 0 1 941 425)"/><path d="M48.3875 0.6125 36.995 12.1275 48.3875 48.3875Z" fill="#0A4DC6" transform="matrix(1.00187 0 0 1 941 425)"/><path d="M48.3875 48.3875 24.6225 24.5 36.995 12.1275Z" fill="#1D89FF" transform="matrix(1.00187 0 0 1 941 425)"/><path d="M0.6125 48.3875 12.1275 36.995 48.3875 48.3875Z" fill="#1D89FF" transform="matrix(1.00187 0 0 1 941 425)"/><path d="M48.3875 48.3875 24.6225 24.5 12.1275 36.995Z" fill="#3EBFED" transform="matrix(1.00187 0 0 1 941 425)"/><path d="M24.6225 24.5 14.21 14.0875 36.995 12.1275Z" fill="#5ED7F1" transform="matrix(1.00187 0 0 1 941 425)"/><path d="M36.995 12.1275 27.8075 0.6125 48.3875 0.6125Z" fill="#1D89FF" transform="matrix(1.00187 0 0 1 941 425)"/><path d="M14.21 14.0875 27.8075 0.6125 36.995 12.1275Z" fill="#06B5F7" transform="matrix(1.00187 0 0 1 941 425)"/><path d="M24.6225 24.5 14.21 14.0875 12.1275 36.995Z" fill="#94E4F6" transform="matrix(1.00187 0 0 1 941 425)"/><path d="M12.1275 36.995 0.6125 27.8075 0.6125 48.3875Z" fill="#06B5F7" transform="matrix(1.00187 0 0 1 941 425)"/><path d="M14.21 14.0875 0.6125 27.8075 12.1275 36.995Z" fill="#B2F1EB" transform="matrix(1.00187 0 0 1 941 425)"/></g></svg>